<?xml version="1.0" encoding="utf-8"?>
<!-- Generator: Adobe Illustrator 19.0.0, SVG Export Plug-In . SVG Version: 6.00 Build 0)  -->
<svg version="1.1" xmlns="http://www.w3.org/2000/svg" xmlns:xlink="http://www.w3.org/1999/xlink" x="0px" y="0px"
	 viewBox="0 0 841.9 595.3" style="enable-background:new 0 0 841.9 595.3;" xml:space="preserve">
<style type="text/css">
	.st0{display:none;}
	.st1{display:inline;}
	.st2{fill:#BE0411;}
	.st3{fill:#002D81;}
	.st4{fill:#C2C3C8;}
	.st5{fill:#003789;}
	.st6{display:none;fill:#C2C3C8;}
	.st7{fill:#004AB5;}
	.st8{fill:#BA0012;}
	.st9{fill:#FFFFFF;}
	.st10{display:inline;fill:#FFFFFF;}
	.st11{fill:url(#XMLID_4_);}
	.st12{fill:url(#XMLID_5_);}
	.st13{fill:url(#XMLID_16_);}
	.st14{fill:url(#XMLID_17_);}
	.st15{fill:url(#XMLID_20_);}
	.st16{fill:url(#XMLID_21_);}
	.st17{fill:url(#meter_7_);}
	.st18{fill:url(#XMLID_22_);}
	.st19{fill:url(#XMLID_24_);}
	.st20{fill:url(#XMLID_25_);}
	.st21{fill:url(#XMLID_35_);}
	.st22{fill:url(#XMLID_40_);}
	.st23{fill:url(#XMLID_61_);}
	.st24{fill:url(#XMLID_68_);}
	.st25{display:none;fill:url(#cacho3_8_);}
	.st26{fill:url(#cacho2_7_);}
	.st27{display:none;fill:url(#cacho1_7_);}
	.st28{fill:url(#XMLID_93_);}
	.st29{fill:url(#XMLID_174_);}
	.st30{fill:url(#XMLID_239_);}
	.st31{fill:url(#XMLID_240_);}
	.st32{fill:url(#XMLID_242_);}
</style>
<g id="Capa_37" class="st0">
	<rect id="XMLID_402_" class="st1" width="841.9" height="595.3"/>
</g>
<g id="NX-RAW_by_form" class="st0">
	<g id="ARROW_copia_2" class="st1">
		<path id="XMLID_173_" class="st2" d="M297.5,534.8c-1.2-0.6-18.3-8.7-32-17.8c-11.1-7.4-38.8-27.3-62.3-61.7
			c-39.8-58.2-40.8-117.8-40.6-133.8c0.6-48.2,16.3-84.2,24.2-100.2c19.5-39,45.1-62.2,52.4-68.5C284,113.9,360.5,83.3,441,106.3
			c70.4,20.1,121.4,74.7,142.9,134l67.3-27.6c-21-45.9-50.2-76.1-66.4-90.9c-17.3-15.9-83.2-74.4-182-74.6
			c-99.2-0.2-194.5,58.3-238.1,147.4c-8,16.3-41.1,88.6-17.5,176.8c6.6,24.7,23.6,72.8,66.5,113.5c0,0,9.1,8.9,24.3,20
			c7.4,5.4,29.2,20.6,61.5,33.4c8.2,3.2,19.3,7.2,32.9,10.8C322.9,545.9,310.9,541.3,297.5,534.8z"/>
		<polygon id="XMLID_172_" class="st2" points="683.9,212 562.7,261.7 654.8,313.9 		"/>
	</g>
	<g id="X_copia_2" class="st1">
		<polygon id="XMLID_171_" class="st3" points="472.3,408.4 428.2,395 411.3,349.9 460.7,381.6 		"/>
		<polygon id="XMLID_170_" class="st2" points="360.2,317.1 406,346.5 325.3,363.7 273.2,347.9 		"/>
		<polygon id="XMLID_169_" class="st2" points="589.1,444.1 449.8,337 544.8,316.5 448.5,285.8 403.7,301.6 322.2,239 207.4,208.8 
			559.9,435.2 		"/>
	</g>
	<g id="LETTERS_copia_2" class="st1">
		<g id="TREMO_5_">
			<path id="XMLID_167_" class="st4" d="M285.8,385l-11.6,15.9l-21.1-4.8l-9.9,50.4l-19.7,6.4l12-60.8l-27.9-6.3l3.8-19.3L285.8,385
				z"/>
			<path id="XMLID_165_" class="st4" d="M302.1,407.2L291.9,459l-15.9-2.6l13.9-70.5l52.2,13l3.7,18.1L324,434l13.7,24l-4.8,24.5
				l-31.2-52.9l22.8-17.3L302.1,407.2z"/>
			<path id="XMLID_161_" class="st4" d="M409,415.7l-8.9,13.7l-47.5-10.8l3.2-16.2L409,415.7z M404.5,438.3l-8.9,13.9l-47.8-9.3
				l3.2-16.2L404.5,438.3z M400.1,460.9l-8.9,14.1l-48.1-7.8l3.2-16.2L400.1,460.9z"/>
			<path id="XMLID_159_" class="st4" d="M455.9,423.7l-11.8,59.8l-10.5-1.7l4.9-25l-13.6,12.4l-8.2-16.7l-4.4,22.1l-13,5.6
				l13.3-67.5l16.6,34.7L455.9,423.7z"/>
			<path id="XMLID_156_" class="st5" d="M490.2,477.4l-11.7,11.7l-29.2-4.7l8.2-41.9l12.6-11.5l27.8,6.9L490.2,477.4z M476.4,474.9
				l6-5.8l3.9-20l-14.1-3.2l-6.2,5.8l-4.1,20.6L476.4,474.9z"/>
			<polygon id="meter" class="st5" points="508.4,428.6 480.5,421.6 648.1,318.6 			"/>
			<g id="flechitas_4_">
				<polygon id="XMLID_155_" class="st4" points="532,440.4 504,434.9 525.4,470 492.3,494.4 520.3,499.9 553.5,475.5 				"/>
				<polygon id="XMLID_154_" class="st4" points="567.8,447.5 539.8,442 561.3,477.1 528.1,501.5 556.1,507 589.3,482.6 				"/>
				<polygon id="XMLID_153_" class="st4" points="604,454.7 576,449.2 597.5,484.4 564.3,508.7 592.3,514.2 625.5,489.8 				"/>
				<polygon id="cacho3_3_" class="st6" points="586.7,518.3 343,474.6 571,529.9 				"/>
				<polygon id="cacho2_4_" class="st4" points="586.7,518.3 424.1,489.3 571,529.9 				"/>
				<polygon id="cacho1_4_" class="st6" points="586.7,518.3 449.2,493.8 571,529.9 				"/>
			</g>
		</g>
		<g id="NIVEL_5_">
			<path id="XMLID_151_" class="st4" d="M417.5,215.5l4.9-24.9l10.3,2.4l-10.2,51.6l-25.6-39.1l-5.1,25.7l-11.5-1.9l10.9-55.2
				L417.5,215.5z"/>
			<path id="XMLID_149_" class="st4" d="M437.6,194.2l9.8,2.3l-7.8,39.8l-11,3.7L437.6,194.2z"/>
			<path id="XMLID_144_" class="st4" d="M456.4,225.7L479,204l12.5,2.9l-49.7,43.3l10.9-55.3l8.3,7.4L456.4,225.7z"/>
			<path id="XMLID_140_" class="st4" d="M525,214.7l-5.5,8.5l-29.5-6.4l1.9-9.8L525,214.7z M522.2,228.6l-5.5,8.5l-29.6-5.6l1.9-9.8
				L522.2,228.6z M519.5,242.5l-5.6,8.6l-29.8-4.9l1.9-9.8L519.5,242.5z"/>
			<path id="XMLID_2_" class="st4" d="M528.6,244.2l18.9,3.4l-5.1,8.2l-22.9-3.7l7.7-39.2l6.3,6.3L528.6,244.2z"/>
		</g>
	</g>
</g>
<g id="NX-ROUND_by_form" class="st0">
	<g id="ARROW_1_" class="st1">
		<path id="XMLID_106_" class="st2" d="M297.5,534.8c-1.2-0.6-18.3-8.7-32-17.8c-11.1-7.4-38.8-27.3-62.3-61.7
			c-39.8-58.2-40.8-117.8-40.6-133.8c0.6-48.2,16.3-84.2,24.2-100.2c19.5-39,45.1-62.2,52.4-68.5C284,113.9,360.5,83.3,441,106.3
			c70,20,120.9,74.2,142.6,133.2c0.2,0.5,0.7,0.7,1.1,0.5l65.6-26.9c0.4-0.2,0.7-0.7,0.5-1.2c-21-45.4-50-75.4-66-90.1
			c-17.3-15.9-83.2-74.4-182-74.6c-99.2-0.2-194.5,58.3-238.1,147.4c-8,16.3-41.1,88.6-17.5,176.8c6.6,24.7,23.6,72.8,66.5,113.5
			c0,0,9.1,8.9,24.3,20c7.4,5.4,29.2,20.6,61.5,33.4c2.7,1.1,5.8,2.2,9.1,3.4c1,0.4,1.6-1.1,0.6-1.6
			C305.5,538.5,301.6,536.7,297.5,534.8z"/>
		<path id="XMLID_105_" class="st2" d="M682.3,212.7l-118,48.4c-0.7,0.3-0.7,1.2-0.1,1.5l89.7,50.8c0.5,0.3,1.1,0,1.2-0.5l28.3-99.2
			C683.6,213,682.9,212.4,682.3,212.7z"/>
	</g>
	<g id="X_1_" class="st1">
		<path id="XMLID_148_" class="st3" d="M470.5,407.9l-37.4-11.4c-3.1-0.9-5.5-3.2-6.6-6.2l-14.2-38c-0.3-0.8,0.6-1.5,1.3-1
			l44.6,28.7c1.7,1.1,3.1,2.7,3.9,4.6l9.6,22.3C471.8,407.4,471.2,408.1,470.5,407.9z"/>
		<path id="XMLID_147_" class="st2" d="M364.4,319.8l39.8,25.6c0.6,0.4,0.5,1.4-0.3,1.5l-76.1,16.2c-1.7,0.4-3.5,0.3-5.2-0.2
			l-47.1-14.3c-0.8-0.2-0.8-1.3,0-1.6l79.8-28.3C358.4,317.7,361.7,318.1,364.4,319.8z"/>
		<path id="XMLID_146_" class="st2" d="M585.4,441.3L451.2,338.2c-0.6-0.4-0.4-1.4,0.3-1.5l90.2-19.4c0.9-0.2,0.9-1.4,0.1-1.6
			l-90-28.7c-2.1-0.7-4.5-0.6-6.6,0.1L409,299.8c-3.3,1.2-7,0.6-9.7-1.5l-75.4-58c-1.1-0.8-2.3-1.4-3.7-1.8l-107.6-28.3
			c-0.9-0.2-1.5,1-0.7,1.5l346.8,222.8c0.8,0.5,1.7,0.9,2.6,1.2l23.4,7.1C585.5,443.1,586.1,441.9,585.4,441.3z"/>
	</g>
	<g id="LETTERS_1_" class="st1">
		<g id="TREMO_3_">
			<path id="XMLID_97_" class="st4" d="M285.1,386l-10.6,14.4c-0.2,0.3-0.5,0.4-0.9,0.3l-19.7-4.5c-0.5-0.1-0.9,0.2-1,0.7l-9.6,49
				c-0.1,0.3-0.3,0.5-0.6,0.6l-17.9,5.8c-0.6,0.2-1.2-0.3-1.1-1l11.5-58.6c0.1-0.5-0.2-0.9-0.6-1l-26.3-6c-0.4-0.1-0.7-0.5-0.6-1
				l3.5-17.6c0.1-0.5,0.6-0.8,1-0.7l72.4,18.1C285.2,384.9,285.5,385.5,285.1,386z"/>
			<path id="XMLID_94_" class="st4" d="M301.9,408l-9.9,50.2c-0.1,0.4-0.5,0.7-1,0.7l-14.2-2.3c-0.5-0.1-0.8-0.5-0.7-1l13.5-68.7
				c0.1-0.5,0.6-0.8,1-0.7l50.8,12.7c0.3,0.1,0.6,0.3,0.6,0.7l3.5,17c0.1,0.3-0.1,0.6-0.3,0.8l-20.7,16.1c-0.3,0.3-0.4,0.7-0.2,1.1
				l13.2,23.1c0.1,0.2,0.1,0.4,0.1,0.6l-4.3,22c-0.2,0.8-1.2,0.9-1.6,0.3l-29.7-50.4c-0.2-0.4-0.1-0.8,0.2-1.1l20.8-15.7
				c0.6-0.4,0.4-1.3-0.3-1.5l-19.8-4.5C302.5,407.3,302,407.6,301.9,408z"/>
			<path id="XMLID_89_" class="st4" d="M408.3,416.7l-7.9,12.2c-0.2,0.3-0.6,0.4-0.9,0.4l-46.2-10.5c-0.4-0.1-0.7-0.5-0.6-1
				l2.9-14.5c0.1-0.5,0.6-0.8,1-0.7l51.2,12.8C408.4,415.6,408.6,416.2,408.3,416.7z M403.9,439.4l-7.9,12.4
				c-0.2,0.3-0.5,0.4-0.9,0.4l-46.4-9c-0.5-0.1-0.8-0.5-0.7-1l2.9-14.5c0.1-0.5,0.5-0.8,1-0.7l51.5,11.1
				C403.9,438.2,404.2,438.9,403.9,439.4z M399.4,462l-8,12.6c-0.2,0.3-0.5,0.4-0.9,0.4l-46.7-7.5c-0.5-0.1-0.8-0.5-0.7-1l2.9-14.5
				c0.1-0.5,0.5-0.8,1-0.7l51.8,9.5C399.4,460.8,399.7,461.5,399.4,462z"/>
			<path id="XMLID_87_" class="st4" d="M455.4,426.2l-11.1,56.5c-0.1,0.4-0.5,0.7-1,0.7l-8.8-1.4c-0.5-0.1-0.8-0.5-0.7-1l4.3-21.6
				c0.2-0.8-0.8-1.3-1.4-0.8l-10.9,9.9c-0.4,0.4-1.1,0.3-1.3-0.3l-6.6-13.5c-0.4-0.7-1.4-0.6-1.6,0.2l-3.8,19.2
				c-0.1,0.3-0.2,0.5-0.5,0.6l-11.1,4.8c-0.6,0.3-1.3-0.3-1.2-0.9l12.5-63.4c0.2-0.8,1.2-0.9,1.6-0.2l15,31.4
				c0.2,0.5,0.9,0.6,1.3,0.3l23.9-21.3C454.6,424.9,455.5,425.4,455.4,426.2z"/>
			<path id="XMLID_84_" class="st5" d="M490,477.6l-11.3,11.2c-0.2,0.2-0.5,0.3-0.7,0.2l-27.9-4.5c-0.5-0.1-0.8-0.5-0.7-1l8-40.8
				c0-0.2,0.1-0.3,0.3-0.5l12.1-11c0.2-0.2,0.5-0.3,0.8-0.2l26.6,6.6c0.4,0.1,0.7,0.5,0.6,1l-7.6,38.4
				C490.2,477.3,490.1,477.5,490,477.6z M476.7,474.6l5.5-5.3c0.1-0.1,0.2-0.3,0.2-0.4l3.7-19c0.1-0.5-0.2-0.9-0.6-1l-12.8-2.9
				c-0.3-0.1-0.6,0-0.8,0.2l-5.7,5.3c-0.1,0.1-0.2,0.3-0.3,0.5l-3.8,19.5c-0.1,0.5,0.2,0.9,0.7,1l13.1,2.4
				C476.2,474.8,476.5,474.8,476.7,474.6z"/>
			<path id="meter_1_" class="st5" d="M508,428.5l-25.5-6.4c-0.7-0.2-0.9-1.2-0.2-1.5l153.4-94.3c0.9-0.6,1.8,0.7,1,1.4L508.7,428.3
				C508.5,428.5,508.2,428.5,508,428.5z"/>
			<g id="flechitas_3_">
				<path id="XMLID_83_" class="st4" d="M531.6,440.3l-25.8-5c-0.7-0.1-1.3,0.6-0.9,1.3l20,32.8c0.2,0.4,0.1,0.9-0.2,1.1l-31,22.8
					c-0.6,0.4-0.4,1.4,0.3,1.5l25.8,5c0.2,0,0.5,0,0.7-0.1l32.2-23.7c0.4-0.3,0.5-0.8,0.2-1.1l-20.9-34.1
					C532.1,440.5,531.9,440.4,531.6,440.3z"/>
				<path id="XMLID_82_" class="st4" d="M567.5,447.4l-25.8-5c-0.7-0.1-1.3,0.6-0.9,1.3l20,32.8c0.2,0.4,0.1,0.9-0.2,1.1l-31,22.8
					c-0.6,0.4-0.4,1.4,0.3,1.5l25.8,5c0.2,0,0.5,0,0.7-0.1l32.2-23.7c0.4-0.3,0.5-0.8,0.2-1.1L568,447.8
					C567.9,447.6,567.7,447.4,567.5,447.4z"/>
				<path id="XMLID_81_" class="st4" d="M603.7,454.6l-25.8-5c-0.7-0.1-1.3,0.6-0.9,1.3l20,32.8c0.2,0.4,0.1,0.9-0.2,1.1l-31,22.8
					c-0.6,0.4-0.4,1.4,0.3,1.5l25.8,5c0.2,0,0.5,0,0.7-0.1l32.2-23.7c0.4-0.3,0.5-0.8,0.2-1.1L604.2,455
					C604.1,454.8,603.9,454.7,603.7,454.6z"/>
				<path id="cacho3_2_" class="st6" d="M584.7,518l-214-38.4c-1.1-0.2-1.4,1.4-0.4,1.7l200.2,48.6c0.2,0.1,0.5,0,0.7-0.1l13.8-10.1
					C585.7,519.1,585.5,518.1,584.7,518z"/>
				<path id="cacho2_2_" class="st4" d="M584.7,518l-142.6-25.5c-1.1-0.2-1.4,1.4-0.4,1.7l128.8,35.6c0.3,0.1,0.5,0,0.7-0.1
					l13.8-10.1C585.7,519.1,585.5,518.1,584.7,518z"/>
				<path id="cacho1_3_" class="st6" d="M584.7,518l-120.5-21.5c-1.1-0.2-1.4,1.3-0.4,1.7l106.7,31.6c0.3,0.1,0.5,0,0.7-0.1
					l13.8-10.1C585.7,519.1,585.5,518.1,584.7,518z"/>
			</g>
		</g>
		<g id="NIVEL_3_">
			<path id="XMLID_79_" class="st4" d="M417.9,213.4l4.3-21.9c0.1-0.5,0.6-0.8,1-0.7l8.6,2c0.4,0.1,0.7,0.5,0.6,1l-9.6,48.8
				c-0.1,0.7-1.1,0.9-1.5,0.3L398,207.3c-0.4-0.6-1.4-0.4-1.5,0.3l-4.5,22.8c-0.1,0.5-0.5,0.7-1,0.7l-9.8-1.6
				c-0.5-0.1-0.8-0.5-0.7-1l10.3-52.2c0.1-0.8,1.1-0.9,1.6-0.3l24,37.7C416.7,214.3,417.7,214.1,417.9,213.4z"/>
			<path id="XMLID_77_" class="st4" d="M438.5,194.4l8.1,1.9c0.4,0.1,0.7,0.5,0.6,1l-7.6,38.5c-0.1,0.3-0.3,0.5-0.6,0.6l-9.1,3.1
				c-0.6,0.2-1.2-0.3-1.1-1l8.6-43.5C437.5,194.6,438,194.3,438.5,194.4z"/>
			<path id="XMLID_108_" class="st4" d="M458.3,223.9l20.4-19.5c0.2-0.2,0.5-0.3,0.8-0.2l10.4,2.4c0.7,0.2,0.9,1,0.4,1.5l-46.6,40.6
				c-0.6,0.5-1.5,0-1.4-0.8l10.1-51.4c0.1-0.6,0.9-0.9,1.4-0.5l6.8,6.1c0.2,0.2,0.3,0.5,0.3,0.8l-4,20.2
				C456.7,223.9,457.7,224.4,458.3,223.9z"/>
			<path id="XMLID_71_" class="st4" d="M524.3,215.8l-4.5,6.9c-0.2,0.3-0.5,0.4-0.9,0.4l-28.1-6.1c-0.5-0.1-0.7-0.5-0.7-1l1.6-8.1
				c0.1-0.5,0.6-0.8,1-0.7l31,7.3C524.4,214.6,524.6,215.3,524.3,215.8z M521.6,229.7l-4.6,7c-0.2,0.3-0.5,0.4-0.9,0.4l-28.2-5.4
				c-0.5-0.1-0.8-0.5-0.7-1l1.6-8.1c0.1-0.5,0.5-0.8,1-0.7l31.2,6.5C521.6,228.5,521.9,229.2,521.6,229.7z M518.8,243.6l-4.6,7.1
				c-0.2,0.3-0.5,0.4-0.9,0.4l-28.3-4.6c-0.5-0.1-0.8-0.5-0.7-1l1.6-8.1c0.1-0.5,0.5-0.8,1-0.7l31.3,5.7
				C518.8,242.4,519.1,243.1,518.8,243.6z"/>
			<path id="XMLID_70_" class="st4" d="M529.4,244.3l16.9,3.1c0.6,0.1,0.9,0.8,0.6,1.3l-4.1,6.7c-0.2,0.3-0.5,0.4-0.9,0.4l-21.5-3.5
				c-0.5-0.1-0.8-0.5-0.7-1l7.2-36.8c0.1-0.7,1-0.9,1.4-0.4l4.8,4.8c0.2,0.2,0.3,0.5,0.2,0.8l-4.7,23.7
				C528.7,243.8,529,244.2,529.4,244.3z"/>
		</g>
	</g>
</g>
<g id="NX-RAW_by_colors" class="st0">
	<g id="RED" class="st1">
		<path id="XMLID_204_" class="st2" d="M297.5,534.8c-1.2-0.6-18.3-8.7-32-17.8c-11.1-7.4-38.8-27.3-62.3-61.7
			c-39.8-58.2-40.8-117.8-40.6-133.8c0.6-48.2,16.3-84.2,24.2-100.2c19.5-39,45.1-62.2,52.4-68.5C284,113.9,360.5,83.3,441,106.3
			c70.4,20.1,121.4,74.7,142.9,134l67.3-27.6c-21-45.9-50.2-76.1-66.4-90.9c-17.3-15.9-83.2-74.4-182-74.6
			c-99.2-0.2-194.5,58.3-238.1,147.4c-8,16.3-41.1,88.6-17.5,176.8c6.6,24.7,23.6,72.8,66.5,113.5c0,0,9.1,8.9,24.3,20
			c7.4,5.4,29.2,20.6,61.5,33.4c8.2,3.2,19.3,7.2,32.9,10.8C322.9,545.9,310.9,541.3,297.5,534.8z"/>
		<polygon id="XMLID_203_" class="st2" points="683.9,212 562.7,261.7 654.8,313.9 		"/>
		<polygon id="XMLID_201_" class="st2" points="360.2,317.1 406,346.5 325.3,363.7 273.2,347.9 		"/>
		<polygon id="XMLID_200_" class="st2" points="589.1,444.1 449.8,337 544.8,316.5 448.5,285.8 403.7,301.6 322.2,239 207.4,208.8 
			559.9,435.2 		"/>
	</g>
	<g id="BLUE" class="st1">
		<polygon id="XMLID_202_" class="st7" points="472.3,408.4 428.2,395 411.3,349.9 460.7,381.6 		"/>
		<path id="XMLID_187_" class="st7" d="M490.2,477.4l-11.7,11.7l-29.2-4.7l8.2-41.9l12.6-11.5l27.8,6.9L490.2,477.4z M476.4,474.9
			l6-5.8l3.9-20l-14.1-3.2l-6.2,5.8l-4.1,20.6L476.4,474.9z"/>
		<polygon id="meter_2_" class="st7" points="508.4,428.6 480.5,421.6 648.1,318.6 		"/>
	</g>
	<g id="GRAY" class="st1">
		<g id="TREMO_6_">
			<path id="XMLID_198_" class="st4" d="M285.8,385l-11.6,15.9l-21.1-4.8l-9.9,50.4l-19.7,6.4l12-60.8l-27.9-6.3l3.8-19.3L285.8,385
				z"/>
			<path id="XMLID_196_" class="st4" d="M302.1,407.2L291.9,459l-15.9-2.6l13.9-70.5l52.2,13l3.7,18.1L324,434l13.7,24l-4.8,24.5
				l-31.2-52.9l22.8-17.3L302.1,407.2z"/>
			<path id="XMLID_192_" class="st4" d="M409,415.7l-8.9,13.7l-47.5-10.8l3.2-16.2L409,415.7z M404.5,438.3l-8.9,13.9l-47.8-9.3
				l3.2-16.2L404.5,438.3z M400.1,460.9l-8.9,14.1l-48.1-7.8l3.2-16.2L400.1,460.9z"/>
			<path id="XMLID_190_" class="st4" d="M455.9,423.7l-11.8,59.8l-10.5-1.7l4.9-25l-13.6,12.4l-8.2-16.7l-4.4,22.1l-13,5.6
				l13.3-67.5l16.6,34.7L455.9,423.7z"/>
			<g id="flechitas_5_">
				<polygon id="XMLID_186_" class="st4" points="532,440.4 504,434.9 525.4,470 492.3,494.4 520.3,499.9 553.5,475.5 				"/>
				<polygon id="XMLID_185_" class="st4" points="567.8,447.5 539.8,442 561.3,477.1 528.1,501.5 556.1,507 589.3,482.6 				"/>
				<polygon id="XMLID_184_" class="st4" points="604,454.7 576,449.2 597.5,484.4 564.3,508.7 592.3,514.2 625.5,489.8 				"/>
				<polygon id="cacho3_4_" class="st6" points="586.7,518.3 343,474.6 571,529.9 				"/>
				<polygon id="cacho2_5_" class="st4" points="586.7,518.3 424.1,489.3 571,529.9 				"/>
				<polygon id="cacho1_5_" class="st6" points="586.7,518.3 449.2,493.8 571,529.9 				"/>
			</g>
		</g>
		<g id="NIVEL_6_">
			<path id="XMLID_182_" class="st4" d="M417.5,215.5l4.9-24.9l10.3,2.4l-10.2,51.6l-25.6-39.1l-5.1,25.7l-11.5-1.9l10.9-55.2
				L417.5,215.5z"/>
			<path id="XMLID_180_" class="st4" d="M437.6,194.2l9.8,2.3l-7.8,39.8l-11,3.7L437.6,194.2z"/>
			<path id="XMLID_178_" class="st4" d="M456.4,225.7L479,204l12.5,2.9l-49.7,43.3l10.9-55.3l8.3,7.4L456.4,225.7z"/>
			<path id="XMLID_15_" class="st4" d="M525,214.7l-5.5,8.5l-29.5-6.4l1.9-9.8L525,214.7z M522.2,228.6l-5.5,8.5l-29.6-5.6l1.9-9.8
				L522.2,228.6z M519.5,242.5l-5.6,8.6l-29.8-4.9l1.9-9.8L519.5,242.5z"/>
			<path id="XMLID_7_" class="st4" d="M528.6,244.2l18.9,3.4l-5.1,8.2l-22.9-3.7l7.7-39.2l6.3,6.3L528.6,244.2z"/>
		</g>
	</g>
</g>
<g id="NX-ROUND_by_colors" class="st0">
	<g id="RED_1_" class="st1">
		<path id="XMLID_237_" class="st8" d="M297.5,534.8c-1.2-0.6-18.3-8.7-32-17.8c-11.1-7.4-38.8-27.3-62.3-61.7
			c-39.8-58.2-40.8-117.8-40.6-133.8c0.6-48.2,16.3-84.2,24.2-100.2c19.5-39,45.1-62.2,52.4-68.5C284,113.9,360.5,83.3,441,106.3
			c70,20,120.9,74.2,142.6,133.2c0.2,0.5,0.7,0.7,1.1,0.5l65.6-26.9c0.4-0.2,0.7-0.7,0.5-1.2c-21-45.4-50-75.4-66-90.1
			c-17.3-15.9-83.2-74.4-182-74.6c-99.2-0.2-194.5,58.3-238.1,147.4c-8,16.3-41.1,88.6-17.5,176.8c6.6,24.7,23.6,72.8,66.5,113.5
			c0,0,9.1,8.9,24.3,20c7.4,5.4,29.2,20.6,61.5,33.4c2.7,1.1,5.8,2.2,9.1,3.4c1,0.4,1.6-1.1,0.6-1.6
			C305.5,538.5,301.6,536.7,297.5,534.8z"/>
		<path id="XMLID_236_" class="st8" d="M682.3,212.7l-118,48.4c-0.7,0.3-0.7,1.2-0.1,1.5l89.7,50.8c0.5,0.3,1.1,0,1.2-0.5l28.3-99.2
			C683.6,213,682.9,212.4,682.3,212.7z"/>
		<path id="XMLID_234_" class="st8" d="M364.4,319.8l39.8,25.6c0.6,0.4,0.5,1.4-0.3,1.5l-76.1,16.2c-1.7,0.4-3.5,0.3-5.2-0.2
			l-47.1-14.3c-0.8-0.2-0.8-1.3,0-1.6l79.8-28.3C358.4,317.7,361.7,318.1,364.4,319.8z"/>
		<path id="XMLID_233_" class="st8" d="M585.4,441.3L451.2,338.2c-0.6-0.4-0.4-1.4,0.3-1.5l90.2-19.4c0.9-0.2,0.9-1.4,0.1-1.6
			l-90-28.7c-2.1-0.7-4.5-0.6-6.6,0.1L409,299.8c-3.3,1.2-7,0.6-9.7-1.5l-75.4-58c-1.1-0.8-2.3-1.4-3.7-1.8l-107.6-28.3
			c-0.9-0.2-1.5,1-0.7,1.5l346.8,222.8c0.8,0.5,1.7,0.9,2.6,1.2l23.4,7.1C585.5,443.1,586.1,441.9,585.4,441.3z"/>
	</g>
	<g id="BLUE_1_" class="st1">
		<path id="XMLID_235_" class="st7" d="M470.5,407.9l-37.4-11.4c-3.1-0.9-5.5-3.2-6.6-6.2l-14.2-38c-0.3-0.8,0.6-1.5,1.3-1
			l44.6,28.7c1.7,1.1,3.1,2.7,3.9,4.6l9.6,22.3C471.8,407.4,471.2,408.1,470.5,407.9z"/>
		<path id="XMLID_220_" class="st7" d="M490,477.6l-11.3,11.2c-0.2,0.2-0.5,0.3-0.7,0.2l-27.9-4.5c-0.5-0.1-0.8-0.5-0.7-1l8-40.8
			c0-0.2,0.1-0.3,0.3-0.5l12.1-11c0.2-0.2,0.5-0.3,0.8-0.2l26.6,6.6c0.4,0.1,0.7,0.5,0.6,1l-7.6,38.4
			C490.2,477.3,490.1,477.5,490,477.6z M476.7,474.6l5.5-5.3c0.1-0.1,0.2-0.3,0.2-0.4l3.7-19c0.1-0.5-0.2-0.9-0.6-1l-12.8-2.9
			c-0.3-0.1-0.6,0-0.8,0.2l-5.7,5.3c-0.1,0.1-0.2,0.3-0.3,0.5l-3.8,19.5c-0.1,0.5,0.2,0.9,0.7,1l13.1,2.4
			C476.2,474.8,476.5,474.8,476.7,474.6z"/>
		<path id="meter_3_" class="st7" d="M508,428.5l-25.5-6.4c-0.7-0.2-0.9-1.2-0.2-1.5l153.4-94.3c0.9-0.6,1.8,0.7,1,1.4L508.7,428.3
			C508.5,428.5,508.2,428.5,508,428.5z"/>
	</g>
	<g id="GRAY_1_" class="st1">
		<g id="TREMO_7_">
			<path id="XMLID_231_" class="st4" d="M285.1,386l-10.6,14.4c-0.2,0.3-0.5,0.4-0.9,0.3l-19.7-4.5c-0.5-0.1-0.9,0.2-1,0.7l-9.6,49
				c-0.1,0.3-0.3,0.5-0.6,0.6l-17.9,5.8c-0.6,0.2-1.2-0.3-1.1-1l11.5-58.6c0.1-0.5-0.2-0.9-0.6-1l-26.3-6c-0.4-0.1-0.7-0.5-0.6-1
				l3.5-17.6c0.1-0.5,0.6-0.8,1-0.7l72.4,18.1C285.2,384.9,285.5,385.5,285.1,386z"/>
			<path id="XMLID_229_" class="st4" d="M301.9,408l-9.9,50.2c-0.1,0.4-0.5,0.7-1,0.7l-14.2-2.3c-0.5-0.1-0.8-0.5-0.7-1l13.5-68.7
				c0.1-0.5,0.6-0.8,1-0.7l50.8,12.7c0.3,0.1,0.6,0.3,0.6,0.7l3.5,17c0.1,0.3-0.1,0.6-0.3,0.8l-20.7,16.1c-0.3,0.3-0.4,0.7-0.2,1.1
				l13.2,23.1c0.1,0.2,0.1,0.4,0.1,0.6l-4.3,22c-0.2,0.8-1.2,0.9-1.6,0.3l-29.7-50.4c-0.2-0.4-0.1-0.8,0.2-1.1l20.8-15.7
				c0.6-0.4,0.4-1.3-0.3-1.5l-19.8-4.5C302.5,407.3,302,407.6,301.9,408z"/>
			<path id="XMLID_225_" class="st4" d="M408.3,416.7l-7.9,12.2c-0.2,0.3-0.6,0.4-0.9,0.4l-46.2-10.5c-0.4-0.1-0.7-0.5-0.6-1
				l2.9-14.5c0.1-0.5,0.6-0.8,1-0.7l51.2,12.8C408.4,415.6,408.6,416.2,408.3,416.7z M403.9,439.4l-7.9,12.4
				c-0.2,0.3-0.5,0.4-0.9,0.4l-46.4-9c-0.5-0.1-0.8-0.5-0.7-1l2.9-14.5c0.1-0.5,0.5-0.8,1-0.7l51.5,11.1
				C403.9,438.2,404.2,438.9,403.9,439.4z M399.4,462l-8,12.6c-0.2,0.3-0.5,0.4-0.9,0.4l-46.7-7.5c-0.5-0.1-0.8-0.5-0.7-1l2.9-14.5
				c0.1-0.5,0.5-0.8,1-0.7l51.8,9.5C399.4,460.8,399.7,461.5,399.4,462z"/>
			<path id="XMLID_223_" class="st4" d="M455.4,426.2l-11.1,56.5c-0.1,0.4-0.5,0.7-1,0.7l-8.8-1.4c-0.5-0.1-0.8-0.5-0.7-1l4.3-21.6
				c0.2-0.8-0.8-1.3-1.4-0.8l-10.9,9.9c-0.4,0.4-1.1,0.3-1.3-0.3l-6.6-13.5c-0.4-0.7-1.4-0.6-1.6,0.2l-3.8,19.2
				c-0.1,0.3-0.2,0.5-0.5,0.6l-11.1,4.8c-0.6,0.3-1.3-0.3-1.2-0.9l12.5-63.4c0.2-0.8,1.2-0.9,1.6-0.2l15,31.4
				c0.2,0.5,0.9,0.6,1.3,0.3l23.9-21.3C454.6,424.9,455.5,425.4,455.4,426.2z"/>
			<g id="flechitas_6_">
				<path id="XMLID_219_" class="st4" d="M531.6,440.3l-25.8-5c-0.7-0.1-1.3,0.6-0.9,1.3l20,32.8c0.2,0.4,0.1,0.9-0.2,1.1l-31,22.8
					c-0.6,0.4-0.4,1.4,0.3,1.5l25.8,5c0.2,0,0.5,0,0.7-0.1l32.2-23.7c0.4-0.3,0.5-0.8,0.2-1.1l-20.9-34.1
					C532.1,440.5,531.9,440.4,531.6,440.3z"/>
				<path id="XMLID_218_" class="st4" d="M567.5,447.4l-25.8-5c-0.7-0.1-1.3,0.6-0.9,1.3l20,32.8c0.2,0.4,0.1,0.9-0.2,1.1l-31,22.8
					c-0.6,0.4-0.4,1.4,0.3,1.5l25.8,5c0.2,0,0.5,0,0.7-0.1l32.2-23.7c0.4-0.3,0.5-0.8,0.2-1.1L568,447.8
					C567.9,447.6,567.7,447.4,567.5,447.4z"/>
				<path id="XMLID_217_" class="st4" d="M603.7,454.6l-25.8-5c-0.7-0.1-1.3,0.6-0.9,1.3l20,32.8c0.2,0.4,0.1,0.9-0.2,1.1l-31,22.8
					c-0.6,0.4-0.4,1.4,0.3,1.5l25.8,5c0.2,0,0.5,0,0.7-0.1l32.2-23.7c0.4-0.3,0.5-0.8,0.2-1.1L604.2,455
					C604.1,454.8,603.9,454.7,603.7,454.6z"/>
				<path id="cacho3_5_" class="st6" d="M584.7,518l-214-38.4c-1.1-0.2-1.4,1.4-0.4,1.7l200.2,48.6c0.2,0.1,0.5,0,0.7-0.1l13.8-10.1
					C585.7,519.1,585.5,518.1,584.7,518z"/>
				<path id="cacho2_6_" class="st4" d="M584.7,518l-142.6-25.5c-1.1-0.2-1.4,1.4-0.4,1.7l128.8,35.6c0.3,0.1,0.5,0,0.7-0.1
					l13.8-10.1C585.7,519.1,585.5,518.1,584.7,518z"/>
				<path id="cacho1_6_" class="st6" d="M584.7,518l-120.5-21.5c-1.1-0.2-1.4,1.3-0.4,1.7l106.7,31.6c0.3,0.1,0.5,0,0.7-0.1
					l13.8-10.1C585.7,519.1,585.5,518.1,584.7,518z"/>
			</g>
		</g>
		<g id="NIVEL_7_">
			<path id="XMLID_215_" class="st4" d="M417.9,213.4l4.3-21.9c0.1-0.5,0.6-0.8,1-0.7l8.6,2c0.4,0.1,0.7,0.5,0.6,1l-9.6,48.8
				c-0.1,0.7-1.1,0.9-1.5,0.3L398,207.3c-0.4-0.6-1.4-0.4-1.5,0.3l-4.5,22.8c-0.1,0.5-0.5,0.7-1,0.7l-9.8-1.6
				c-0.5-0.1-0.8-0.5-0.7-1l10.3-52.2c0.1-0.8,1.1-0.9,1.6-0.3l24,37.7C416.7,214.3,417.7,214.1,417.9,213.4z"/>
			<path id="XMLID_213_" class="st4" d="M438.5,194.4l8.1,1.9c0.4,0.1,0.7,0.5,0.6,1l-7.6,38.5c-0.1,0.3-0.3,0.5-0.6,0.6l-9.1,3.1
				c-0.6,0.2-1.2-0.3-1.1-1l8.6-43.5C437.5,194.6,438,194.3,438.5,194.4z"/>
			<path id="XMLID_211_" class="st4" d="M458.3,223.9l20.4-19.5c0.2-0.2,0.5-0.3,0.8-0.2l10.4,2.4c0.7,0.2,0.9,1,0.4,1.5l-46.6,40.6
				c-0.6,0.5-1.5,0-1.4-0.8l10.1-51.4c0.1-0.6,0.9-0.9,1.4-0.5l6.8,6.1c0.2,0.2,0.3,0.5,0.3,0.8l-4,20.2
				C456.7,223.9,457.7,224.4,458.3,223.9z"/>
			<path id="XMLID_207_" class="st4" d="M524.3,215.8l-4.5,6.9c-0.2,0.3-0.5,0.4-0.9,0.4l-28.1-6.1c-0.5-0.1-0.7-0.5-0.7-1l1.6-8.1
				c0.1-0.5,0.6-0.8,1-0.7l31,7.3C524.4,214.6,524.6,215.3,524.3,215.8z M521.6,229.7l-4.6,7c-0.2,0.3-0.5,0.4-0.9,0.4l-28.2-5.4
				c-0.5-0.1-0.8-0.5-0.7-1l1.6-8.1c0.1-0.5,0.5-0.8,1-0.7l31.2,6.5C521.6,228.5,521.9,229.2,521.6,229.7z M518.8,243.6l-4.6,7.1
				c-0.2,0.3-0.5,0.4-0.9,0.4l-28.3-4.6c-0.5-0.1-0.8-0.5-0.7-1l1.6-8.1c0.1-0.5,0.5-0.8,1-0.7l31.3,5.7
				C518.8,242.4,519.1,243.1,518.8,243.6z"/>
			<path id="XMLID_205_" class="st4" d="M529.4,244.3l16.9,3.1c0.6,0.1,0.9,0.8,0.6,1.3l-4.1,6.7c-0.2,0.3-0.5,0.4-0.9,0.4
				l-21.5-3.5c-0.5-0.1-0.8-0.5-0.7-1l7.2-36.8c0.1-0.7,1-0.9,1.4-0.4l4.8,4.8c0.2,0.2,0.3,0.5,0.2,0.8l-4.7,23.7
				C528.7,243.8,529,244.2,529.4,244.3z"/>
		</g>
	</g>
</g>
<g id="NX-ROUND_by_form_White" class="st0">
	<g id="ARROW_copia_5" class="st1">
		<g id="XMLID_303_">
			<path id="XMLID_96_" class="st9" d="M297.5,534.8c-1.2-0.6-18.3-8.7-32-17.8c-11.1-7.4-38.8-27.3-62.3-61.7
				c-39.8-58.2-40.8-117.8-40.6-133.8c0.6-48.2,16.3-84.2,24.2-100.2c19.5-39,45.1-62.2,52.4-68.5C284,113.9,360.5,83.3,441,106.3
				c70,20,120.9,74.2,142.6,133.2c0.2,0.5,0.7,0.7,1.1,0.5l65.6-26.9c0.4-0.2,0.7-0.7,0.5-1.2c-21-45.4-50-75.4-66-90.1
				c-17.3-15.9-83.2-74.4-182-74.6c-99.2-0.2-194.5,58.3-238.1,147.4c-8,16.3-41.1,88.6-17.5,176.8c6.6,24.7,23.6,72.8,66.5,113.5
				c0,0,9.1,8.9,24.3,20c7.4,5.4,29.2,20.6,61.5,33.4c2.7,1.1,5.8,2.2,9.1,3.4c1,0.4,1.6-1.1,0.6-1.6
				C305.5,538.5,301.6,536.7,297.5,534.8z"/>
		</g>
		<g id="XMLID_302_">
			<path id="XMLID_65_" class="st9" d="M682.3,212.7l-118,48.4c-0.7,0.3-0.7,1.2-0.1,1.5l89.7,50.8c0.5,0.3,1.1,0,1.2-0.5l28.3-99.2
				C683.6,213,682.9,212.4,682.3,212.7z"/>
		</g>
	</g>
	<g id="X_copia_5" class="st1">
		<g id="XMLID_301_">
			<path id="XMLID_63_" class="st9" d="M470.5,407.9l-37.4-11.4c-3.1-0.9-5.5-3.2-6.6-6.2l-14.2-38c-0.3-0.8,0.6-1.5,1.3-1
				l44.6,28.7c1.7,1.1,3.1,2.7,3.9,4.6l9.6,22.3C471.8,407.4,471.2,408.1,470.5,407.9z"/>
		</g>
		<g id="XMLID_300_">
			<path id="XMLID_53_" class="st9" d="M364.4,319.8l39.8,25.6c0.6,0.4,0.5,1.4-0.3,1.5l-76.1,16.2c-1.7,0.4-3.5,0.3-5.2-0.2
				l-47.1-14.3c-0.8-0.2-0.8-1.3,0-1.6l79.8-28.3C358.4,317.7,361.7,318.1,364.4,319.8z"/>
		</g>
		<g id="XMLID_299_">
			<path id="XMLID_45_" class="st9" d="M585.4,441.3L451.2,338.2c-0.6-0.4-0.4-1.4,0.3-1.5l90.2-19.4c0.9-0.2,0.9-1.4,0.1-1.6
				l-90-28.7c-2.1-0.7-4.5-0.6-6.6,0.1L409,299.8c-3.3,1.2-7,0.6-9.7-1.5l-75.4-58c-1.1-0.8-2.3-1.4-3.7-1.8l-107.6-28.3
				c-0.9-0.2-1.5,1-0.7,1.5l346.8,222.8c0.8,0.5,1.7,0.9,2.6,1.2l23.4,7.1C585.5,443.1,586.1,441.9,585.4,441.3z"/>
		</g>
	</g>
	<g id="LETTERS_copia_5" class="st1">
		<g id="TREMO_9_">
			<g id="XMLID_297_">
				<path id="XMLID_52_" class="st9" d="M285.1,386l-10.6,14.4c-0.2,0.3-0.5,0.4-0.9,0.3l-19.7-4.5c-0.5-0.1-0.9,0.2-1,0.7l-9.6,49
					c-0.1,0.3-0.3,0.5-0.6,0.6l-17.9,5.8c-0.6,0.2-1.2-0.3-1.1-1l11.5-58.6c0.1-0.5-0.2-0.9-0.6-1l-26.3-6c-0.4-0.1-0.7-0.5-0.6-1
					l3.5-17.6c0.1-0.5,0.6-0.8,1-0.7l72.4,18.1C285.2,384.9,285.5,385.5,285.1,386z"/>
			</g>
			<g id="XMLID_295_">
				<path id="XMLID_50_" class="st9" d="M301.9,408l-9.9,50.2c-0.1,0.4-0.5,0.7-1,0.7l-14.2-2.3c-0.5-0.1-0.8-0.5-0.7-1l13.5-68.7
					c0.1-0.5,0.6-0.8,1-0.7l50.8,12.7c0.3,0.1,0.6,0.3,0.6,0.7l3.5,17c0.1,0.3-0.1,0.6-0.3,0.8l-20.7,16.1c-0.3,0.3-0.4,0.7-0.2,1.1
					l13.2,23.1c0.1,0.2,0.1,0.4,0.1,0.6l-4.3,22c-0.2,0.8-1.2,0.9-1.6,0.3l-29.7-50.4c-0.2-0.4-0.1-0.8,0.2-1.1l20.8-15.7
					c0.6-0.4,0.4-1.3-0.3-1.5l-19.8-4.5C302.5,407.3,302,407.6,301.9,408z"/>
			</g>
			<g id="XMLID_291_">
				<path id="XMLID_340_" class="st9" d="M408.3,416.7l-7.9,12.2c-0.2,0.3-0.6,0.4-0.9,0.4l-46.2-10.5c-0.4-0.1-0.7-0.5-0.6-1
					l2.9-14.5c0.1-0.5,0.6-0.8,1-0.7l51.2,12.8C408.4,415.6,408.6,416.2,408.3,416.7z M403.9,439.4l-7.9,12.4
					c-0.2,0.3-0.5,0.4-0.9,0.4l-46.4-9c-0.5-0.1-0.8-0.5-0.7-1l2.9-14.5c0.1-0.5,0.5-0.8,1-0.7l51.5,11.1
					C403.9,438.2,404.2,438.9,403.9,439.4z M399.4,462l-8,12.6c-0.2,0.3-0.5,0.4-0.9,0.4l-46.7-7.5c-0.5-0.1-0.8-0.5-0.7-1l2.9-14.5
					c0.1-0.5,0.5-0.8,1-0.7l51.8,9.5C399.4,460.8,399.7,461.5,399.4,462z"/>
			</g>
			<g id="XMLID_289_">
				<path id="XMLID_47_" class="st9" d="M455.4,426.2l-11.1,56.5c-0.1,0.4-0.5,0.7-1,0.7l-8.8-1.4c-0.5-0.1-0.8-0.5-0.7-1l4.3-21.6
					c0.2-0.8-0.8-1.3-1.4-0.8l-10.9,9.9c-0.4,0.4-1.1,0.3-1.3-0.3l-6.6-13.5c-0.4-0.7-1.4-0.6-1.6,0.2l-3.8,19.2
					c-0.1,0.3-0.2,0.5-0.5,0.6l-11.1,4.8c-0.6,0.3-1.3-0.3-1.2-0.9l12.5-63.4c0.2-0.8,1.2-0.9,1.6-0.2l15,31.4
					c0.2,0.5,0.9,0.6,1.3,0.3l23.9-21.3C454.6,424.9,455.5,425.4,455.4,426.2z"/>
			</g>
			<g id="XMLID_286_">
				<path id="XMLID_246_" class="st9" d="M490,477.6l-11.3,11.2c-0.2,0.2-0.5,0.3-0.7,0.2l-27.9-4.5c-0.5-0.1-0.8-0.5-0.7-1l8-40.8
					c0-0.2,0.1-0.3,0.3-0.5l12.1-11c0.2-0.2,0.5-0.3,0.8-0.2l26.6,6.6c0.4,0.1,0.7,0.5,0.6,1l-7.6,38.4
					C490.2,477.3,490.1,477.5,490,477.6z M476.7,474.6l5.5-5.3c0.1-0.1,0.2-0.3,0.2-0.4l3.7-19c0.1-0.5-0.2-0.9-0.6-1l-12.8-2.9
					c-0.3-0.1-0.6,0-0.8,0.2l-5.7,5.3c-0.1,0.1-0.2,0.3-0.3,0.5l-3.8,19.5c-0.1,0.5,0.2,0.9,0.7,1l13.1,2.4
					C476.2,474.8,476.5,474.8,476.7,474.6z"/>
			</g>
			<g id="meter_4_">
				<path id="XMLID_42_" class="st9" d="M508,428.5l-25.5-6.4c-0.7-0.2-0.9-1.2-0.2-1.5l153.4-94.3c0.9-0.6,1.8,0.7,1,1.4
					L508.7,428.3C508.5,428.5,508.2,428.5,508,428.5z"/>
			</g>
			<g id="flechitas_8_">
				<g id="XMLID_285_">
					<path id="XMLID_41_" class="st9" d="M531.6,440.3l-25.8-5c-0.7-0.1-1.3,0.6-0.9,1.3l20,32.8c0.2,0.4,0.1,0.9-0.2,1.1l-31,22.8
						c-0.6,0.4-0.4,1.4,0.3,1.5l25.8,5c0.2,0,0.5,0,0.7-0.1l32.2-23.7c0.4-0.3,0.5-0.8,0.2-1.1l-20.9-34.1
						C532.1,440.5,531.9,440.4,531.6,440.3z"/>
				</g>
				<g id="XMLID_284_">
					<path id="XMLID_39_" class="st9" d="M567.5,447.4l-25.8-5c-0.7-0.1-1.3,0.6-0.9,1.3l20,32.8c0.2,0.4,0.1,0.9-0.2,1.1l-31,22.8
						c-0.6,0.4-0.4,1.4,0.3,1.5l25.8,5c0.2,0,0.5,0,0.7-0.1l32.2-23.7c0.4-0.3,0.5-0.8,0.2-1.1L568,447.8
						C567.9,447.6,567.7,447.4,567.5,447.4z"/>
				</g>
				<g id="XMLID_283_">
					<path id="XMLID_37_" class="st9" d="M603.7,454.6l-25.8-5c-0.7-0.1-1.3,0.6-0.9,1.3l20,32.8c0.2,0.4,0.1,0.9-0.2,1.1l-31,22.8
						c-0.6,0.4-0.4,1.4,0.3,1.5l25.8,5c0.2,0,0.5,0,0.7-0.1l32.2-23.7c0.4-0.3,0.5-0.8,0.2-1.1L604.2,455
						C604.1,454.8,603.9,454.7,603.7,454.6z"/>
				</g>
				<g id="cacho3_7_" class="st0">
					<path id="XMLID_27_" class="st10" d="M584.7,518l-214-38.4c-1.1-0.2-1.4,1.4-0.4,1.7l200.2,48.6c0.2,0.1,0.5,0,0.7-0.1
						l13.8-10.1C585.7,519.1,585.5,518.1,584.7,518z"/>
				</g>
				<g id="cacho2_8_">
					<path id="XMLID_12_" class="st9" d="M584.7,518l-142.6-25.5c-1.1-0.2-1.4,1.4-0.4,1.7l128.8,35.6c0.3,0.1,0.5,0,0.7-0.1
						l13.8-10.1C585.7,519.1,585.5,518.1,584.7,518z"/>
				</g>
				<g id="cacho1_8_" class="st0">
					<path id="XMLID_10_" class="st10" d="M584.7,518l-120.5-21.5c-1.1-0.2-1.4,1.3-0.4,1.7l106.7,31.6c0.3,0.1,0.5,0,0.7-0.1
						l13.8-10.1C585.7,519.1,585.5,518.1,584.7,518z"/>
				</g>
			</g>
		</g>
		<g id="NIVEL_9_">
			<g id="XMLID_281_">
				<path id="XMLID_55_" class="st9" d="M417.9,213.4l4.3-21.9c0.1-0.5,0.6-0.8,1-0.7l8.6,2c0.4,0.1,0.7,0.5,0.6,1l-9.6,48.8
					c-0.1,0.7-1.1,0.9-1.5,0.3L398,207.3c-0.4-0.6-1.4-0.4-1.5,0.3l-4.5,22.8c-0.1,0.5-0.5,0.7-1,0.7l-9.8-1.6
					c-0.5-0.1-0.8-0.5-0.7-1l10.3-52.2c0.1-0.8,1.1-0.9,1.6-0.3l24,37.7C416.7,214.3,417.7,214.1,417.9,213.4z"/>
			</g>
			<g id="XMLID_279_">
				<path id="XMLID_98_" class="st9" d="M438.5,194.4l8.1,1.9c0.4,0.1,0.7,0.5,0.6,1l-7.6,38.5c-0.1,0.3-0.3,0.5-0.6,0.6l-9.1,3.1
					c-0.6,0.2-1.2-0.3-1.1-1l8.6-43.5C437.5,194.6,438,194.3,438.5,194.4z"/>
			</g>
			<g id="XMLID_277_">
				<path id="XMLID_177_" class="st9" d="M458.3,223.9l20.4-19.5c0.2-0.2,0.5-0.3,0.8-0.2l10.4,2.4c0.7,0.2,0.9,1,0.4,1.5
					l-46.6,40.6c-0.6,0.5-1.5,0-1.4-0.8l10.1-51.4c0.1-0.6,0.9-0.9,1.4-0.5l6.8,6.1c0.2,0.2,0.3,0.5,0.3,0.8l-4,20.2
					C456.7,223.9,457.7,224.4,458.3,223.9z"/>
			</g>
			<g id="XMLID_273_">
				<path id="XMLID_353_" class="st9" d="M524.3,215.8l-4.5,6.9c-0.2,0.3-0.5,0.4-0.9,0.4l-28.1-6.1c-0.5-0.1-0.7-0.5-0.7-1l1.6-8.1
					c0.1-0.5,0.6-0.8,1-0.7l31,7.3C524.4,214.6,524.6,215.3,524.3,215.8z M521.6,229.7l-4.6,7c-0.2,0.3-0.5,0.4-0.9,0.4l-28.2-5.4
					c-0.5-0.1-0.8-0.5-0.7-1l1.6-8.1c0.1-0.5,0.5-0.8,1-0.7l31.2,6.5C521.6,228.5,521.9,229.2,521.6,229.7z M518.8,243.6l-4.6,7.1
					c-0.2,0.3-0.5,0.4-0.9,0.4l-28.3-4.6c-0.5-0.1-0.8-0.5-0.7-1l1.6-8.1c0.1-0.5,0.5-0.8,1-0.7l31.3,5.7
					C518.8,242.4,519.1,243.1,518.8,243.6z"/>
			</g>
			<g id="XMLID_271_">
				<path id="XMLID_321_" class="st9" d="M529.4,244.3l16.9,3.1c0.6,0.1,0.9,0.8,0.6,1.3l-4.1,6.7c-0.2,0.3-0.5,0.4-0.9,0.4
					l-21.5-3.5c-0.5-0.1-0.8-0.5-0.7-1l7.2-36.8c0.1-0.7,1-0.9,1.4-0.4l4.8,4.8c0.2,0.2,0.3,0.5,0.2,0.8l-4.7,23.7
					C528.7,243.8,529,244.2,529.4,244.3z"/>
			</g>
		</g>
	</g>
</g>
<g id="NX-ROUND_by_form_Black">
	<g id="ARROW_copia_6">
		<g id="XMLID_347_">
			<path id="XMLID_356_" d="M297.5,534.8c-1.2-0.6-18.3-8.7-32-17.8c-11.1-7.4-38.8-27.3-62.3-61.7
				c-39.8-58.2-40.8-117.8-40.6-133.8c0.6-48.2,16.3-84.2,24.2-100.2c19.5-39,45.1-62.2,52.4-68.5C284,113.9,360.5,83.3,441,106.3
				c70,20,120.9,74.2,142.6,133.2c0.2,0.5,0.7,0.7,1.1,0.5l65.6-26.9c0.4-0.2,0.7-0.7,0.5-1.2c-21-45.4-50-75.4-66-90.1
				c-17.3-15.9-83.2-74.4-182-74.6c-99.2-0.2-194.5,58.3-238.1,147.4c-8,16.3-41.1,88.6-17.5,176.8c6.6,24.7,23.6,72.8,66.5,113.5
				c0,0,9.1,8.9,24.3,20c7.4,5.4,29.2,20.6,61.5,33.4c2.7,1.1,5.8,2.2,9.1,3.4c1,0.4,1.6-1.1,0.6-1.6
				C305.5,538.5,301.6,536.7,297.5,534.8z"/>
		</g>
		<g id="XMLID_344_">
			<path id="XMLID_350_" d="M682.3,212.7l-118,48.4c-0.7,0.3-0.7,1.2-0.1,1.5l89.7,50.8c0.5,0.3,1.1,0,1.2-0.5l28.3-99.2
				C683.6,213,682.9,212.4,682.3,212.7z"/>
		</g>
	</g>
	<g id="X_copia_6">
		<g id="XMLID_341_">
			<path id="XMLID_348_" d="M470.5,407.9l-37.4-11.4c-3.1-0.9-5.5-3.2-6.6-6.2l-14.2-38c-0.3-0.8,0.6-1.5,1.3-1l44.6,28.7
				c1.7,1.1,3.1,2.7,3.9,4.6l9.6,22.3C471.8,407.4,471.2,408.1,470.5,407.9z"/>
		</g>
		<g id="XMLID_338_">
			<path id="XMLID_332_" d="M364.4,319.8l39.8,25.6c0.6,0.4,0.5,1.4-0.3,1.5l-76.1,16.2c-1.7,0.4-3.5,0.3-5.2-0.2l-47.1-14.3
				c-0.8-0.2-0.8-1.3,0-1.6l79.8-28.3C358.4,317.7,361.7,318.1,364.4,319.8z"/>
		</g>
		<g id="XMLID_335_">
			<path id="XMLID_318_" d="M585.4,441.3L451.2,338.2c-0.6-0.4-0.4-1.4,0.3-1.5l90.2-19.4c0.9-0.2,0.9-1.4,0.1-1.6l-90-28.7
				c-2.1-0.7-4.5-0.6-6.6,0.1L409,299.8c-3.3,1.2-7,0.6-9.7-1.5l-75.4-58c-1.1-0.8-2.3-1.4-3.7-1.8l-107.6-28.3
				c-0.9-0.2-1.5,1-0.7,1.5l346.8,222.8c0.8,0.5,1.7,0.9,2.6,1.2l23.4,7.1C585.5,443.1,586.1,441.9,585.4,441.3z"/>
		</g>
	</g>
	<g id="LETTERS_copia_6">
		<g id="TREMO_1_">
			<g id="XMLID_330_">
				<path id="XMLID_333_" d="M285.1,386l-10.6,14.4c-0.2,0.3-0.5,0.4-0.9,0.3l-19.7-4.5c-0.5-0.1-0.9,0.2-1,0.7l-9.6,49
					c-0.1,0.3-0.3,0.5-0.6,0.6l-17.9,5.8c-0.6,0.2-1.2-0.3-1.1-1l11.5-58.6c0.1-0.5-0.2-0.9-0.6-1l-26.3-6c-0.4-0.1-0.7-0.5-0.6-1
					l3.5-17.6c0.1-0.5,0.6-0.8,1-0.7l72.4,18.1C285.2,384.9,285.5,385.5,285.1,386z"/>
			</g>
			<g id="XMLID_325_">
				<path id="XMLID_327_" d="M301.9,408l-9.9,50.2c-0.1,0.4-0.5,0.7-1,0.7l-14.2-2.3c-0.5-0.1-0.8-0.5-0.7-1l13.5-68.7
					c0.1-0.5,0.6-0.8,1-0.7l50.8,12.7c0.3,0.1,0.6,0.3,0.6,0.7l3.5,17c0.1,0.3-0.1,0.6-0.3,0.8l-20.7,16.1c-0.3,0.3-0.4,0.7-0.2,1.1
					l13.2,23.1c0.1,0.2,0.1,0.4,0.1,0.6l-4.3,22c-0.2,0.8-1.2,0.9-1.6,0.3l-29.7-50.4c-0.2-0.4-0.1-0.8,0.2-1.1l20.8-15.7
					c0.6-0.4,0.4-1.3-0.3-1.5l-19.8-4.5C302.5,407.3,302,407.6,301.9,408z"/>
			</g>
			<g id="XMLID_316_">
				<path id="XMLID_364_" d="M408.3,416.7l-7.9,12.2c-0.2,0.3-0.6,0.4-0.9,0.4l-46.2-10.5c-0.4-0.1-0.7-0.5-0.6-1l2.9-14.5
					c0.1-0.5,0.6-0.8,1-0.7l51.2,12.8C408.4,415.6,408.6,416.2,408.3,416.7z M403.9,439.4l-7.9,12.4c-0.2,0.3-0.5,0.4-0.9,0.4
					l-46.4-9c-0.5-0.1-0.8-0.5-0.7-1l2.9-14.5c0.1-0.5,0.5-0.8,1-0.7l51.5,11.1C403.9,438.2,404.2,438.9,403.9,439.4z M399.4,462
					l-8,12.6c-0.2,0.3-0.5,0.4-0.9,0.4l-46.7-7.5c-0.5-0.1-0.8-0.5-0.7-1l2.9-14.5c0.1-0.5,0.5-0.8,1-0.7l51.8,9.5
					C399.4,460.8,399.7,461.5,399.4,462z"/>
			</g>
			<g id="XMLID_311_">
				<path id="XMLID_308_" d="M455.4,426.2l-11.1,56.5c-0.1,0.4-0.5,0.7-1,0.7l-8.8-1.4c-0.5-0.1-0.8-0.5-0.7-1l4.3-21.6
					c0.2-0.8-0.8-1.3-1.4-0.8l-10.9,9.9c-0.4,0.4-1.1,0.3-1.3-0.3l-6.6-13.5c-0.4-0.7-1.4-0.6-1.6,0.2l-3.8,19.2
					c-0.1,0.3-0.2,0.5-0.5,0.6l-11.1,4.8c-0.6,0.3-1.3-0.3-1.2-0.9l12.5-63.4c0.2-0.8,1.2-0.9,1.6-0.2l15,31.4
					c0.2,0.5,0.9,0.6,1.3,0.3l23.9-21.3C454.6,424.9,455.5,425.4,455.4,426.2z"/>
			</g>
			<g id="XMLID_304_">
				<path id="XMLID_351_" d="M490,477.6l-11.3,11.2c-0.2,0.2-0.5,0.3-0.7,0.2l-27.9-4.5c-0.5-0.1-0.8-0.5-0.7-1l8-40.8
					c0-0.2,0.1-0.3,0.3-0.5l12.1-11c0.2-0.2,0.5-0.3,0.8-0.2l26.6,6.6c0.4,0.1,0.7,0.5,0.6,1l-7.6,38.4
					C490.2,477.3,490.1,477.5,490,477.6z M476.7,474.6l5.5-5.3c0.1-0.1,0.2-0.3,0.2-0.4l3.7-19c0.1-0.5-0.2-0.9-0.6-1l-12.8-2.9
					c-0.3-0.1-0.6,0-0.8,0.2l-5.7,5.3c-0.1,0.1-0.2,0.3-0.3,0.5l-3.8,19.5c-0.1,0.5,0.2,0.9,0.7,1l13.1,2.4
					C476.2,474.8,476.5,474.8,476.7,474.6z"/>
			</g>
			<g id="meter_6_">
				<path id="XMLID_313_" d="M508,428.5l-25.5-6.4c-0.7-0.2-0.9-1.2-0.2-1.5l153.4-94.3c0.9-0.6,1.8,0.7,1,1.4L508.7,428.3
					C508.5,428.5,508.2,428.5,508,428.5z"/>
			</g>
			<g id="flechitas_1_">
				<g id="XMLID_266_">
					<path id="XMLID_312_" d="M531.6,440.3l-25.8-5c-0.7-0.1-1.3,0.6-0.9,1.3l20,32.8c0.2,0.4,0.1,0.9-0.2,1.1l-31,22.8
						c-0.6,0.4-0.4,1.4,0.3,1.5l25.8,5c0.2,0,0.5,0,0.7-0.1l32.2-23.7c0.4-0.3,0.5-0.8,0.2-1.1l-20.9-34.1
						C532.1,440.5,531.9,440.4,531.6,440.3z"/>
				</g>
				<g id="XMLID_263_">
					<path id="XMLID_307_" d="M567.5,447.4l-25.8-5c-0.7-0.1-1.3,0.6-0.9,1.3l20,32.8c0.2,0.4,0.1,0.9-0.2,1.1l-31,22.8
						c-0.6,0.4-0.4,1.4,0.3,1.5l25.8,5c0.2,0,0.5,0,0.7-0.1l32.2-23.7c0.4-0.3,0.5-0.8,0.2-1.1L568,447.8
						C567.9,447.6,567.7,447.4,567.5,447.4z"/>
				</g>
				<g id="XMLID_260_">
					<path id="XMLID_305_" d="M603.7,454.6l-25.8-5c-0.7-0.1-1.3,0.6-0.9,1.3l20,32.8c0.2,0.4,0.1,0.9-0.2,1.1l-31,22.8
						c-0.6,0.4-0.4,1.4,0.3,1.5l25.8,5c0.2,0,0.5,0,0.7-0.1l32.2-23.7c0.4-0.3,0.5-0.8,0.2-1.1L604.2,455
						C604.1,454.8,603.9,454.7,603.7,454.6z"/>
				</g>
				<g id="cacho3_6_" class="st0">
					<path id="XMLID_259_" class="st1" d="M584.7,518l-214-38.4c-1.1-0.2-1.4,1.4-0.4,1.7l200.2,48.6c0.2,0.1,0.5,0,0.7-0.1
						l13.8-10.1C585.7,519.1,585.5,518.1,584.7,518z"/>
				</g>
				<g id="cacho2_1_">
					<path id="XMLID_67_" d="M584.7,518l-142.6-25.5c-1.1-0.2-1.4,1.4-0.4,1.7l128.8,35.6c0.3,0.1,0.5,0,0.7-0.1l13.8-10.1
						C585.7,519.1,585.5,518.1,584.7,518z"/>
				</g>
				<g id="cacho1_1_" class="st0">
					<path id="XMLID_29_" class="st1" d="M584.7,518l-120.5-21.5c-1.1-0.2-1.4,1.3-0.4,1.7l106.7,31.6c0.3,0.1,0.5,0,0.7-0.1
						l13.8-10.1C585.7,519.1,585.5,518.1,584.7,518z"/>
				</g>
			</g>
		</g>
		<g id="NIVEL_1_">
			<g id="XMLID_249_">
				<path id="XMLID_261_" d="M417.9,213.4l4.3-21.9c0.1-0.5,0.6-0.8,1-0.7l8.6,2c0.4,0.1,0.7,0.5,0.6,1l-9.6,48.8
					c-0.1,0.7-1.1,0.9-1.5,0.3L398,207.3c-0.4-0.6-1.4-0.4-1.5,0.3l-4.5,22.8c-0.1,0.5-0.5,0.7-1,0.7l-9.8-1.6
					c-0.5-0.1-0.8-0.5-0.7-1l10.3-52.2c0.1-0.8,1.1-0.9,1.6-0.3l24,37.7C416.7,214.3,417.7,214.1,417.9,213.4z"/>
			</g>
			<g id="XMLID_176_">
				<path id="XMLID_258_" d="M438.5,194.4l8.1,1.9c0.4,0.1,0.7,0.5,0.6,1l-7.6,38.5c-0.1,0.3-0.3,0.5-0.6,0.6l-9.1,3.1
					c-0.6,0.2-1.2-0.3-1.1-1l8.6-43.5C437.5,194.6,438,194.3,438.5,194.4z"/>
			</g>
			<g id="XMLID_62_">
				<path id="XMLID_267_" d="M458.3,223.9l20.4-19.5c0.2-0.2,0.5-0.3,0.8-0.2l10.4,2.4c0.7,0.2,0.9,1,0.4,1.5l-46.6,40.6
					c-0.6,0.5-1.5,0-1.4-0.8l10.1-51.4c0.1-0.6,0.9-0.9,1.4-0.5l6.8,6.1c0.2,0.2,0.3,0.5,0.3,0.8l-4,20.2
					C456.7,223.9,457.7,224.4,458.3,223.9z"/>
			</g>
			<g id="XMLID_13_">
				<path id="XMLID_368_" d="M524.3,215.8l-4.5,6.9c-0.2,0.3-0.5,0.4-0.9,0.4l-28.1-6.1c-0.5-0.1-0.7-0.5-0.7-1l1.6-8.1
					c0.1-0.5,0.6-0.8,1-0.7l31,7.3C524.4,214.6,524.6,215.3,524.3,215.8z M521.6,229.7l-4.6,7c-0.2,0.3-0.5,0.4-0.9,0.4l-28.2-5.4
					c-0.5-0.1-0.8-0.5-0.7-1l1.6-8.1c0.1-0.5,0.5-0.8,1-0.7l31.2,6.5C521.6,228.5,521.9,229.2,521.6,229.7z M518.8,243.6l-4.6,7.1
					c-0.2,0.3-0.5,0.4-0.9,0.4l-28.3-4.6c-0.5-0.1-0.8-0.5-0.7-1l1.6-8.1c0.1-0.5,0.5-0.8,1-0.7l31.3,5.7
					C518.8,242.4,519.1,243.1,518.8,243.6z"/>
			</g>
			<g id="XMLID_3_">
				<path id="XMLID_360_" d="M529.4,244.3l16.9,3.1c0.6,0.1,0.9,0.8,0.6,1.3l-4.1,6.7c-0.2,0.3-0.5,0.4-0.9,0.4l-21.5-3.5
					c-0.5-0.1-0.8-0.5-0.7-1l7.2-36.8c0.1-0.7,1-0.9,1.4-0.4l4.8,4.8c0.2,0.2,0.3,0.5,0.2,0.8l-4.7,23.7
					C528.7,243.8,529,244.2,529.4,244.3z"/>
			</g>
		</g>
	</g>
</g>
<g id="NX-ROUND_by_colors_degrade" class="st0">
	<g id="RED_copia" class="st1">
		<linearGradient id="XMLID_4_" gradientUnits="userSpaceOnUse" x1="138.8277" y1="294.4811" x2="650.8257" y2="294.4811">
			<stop  offset="0" style="stop-color:#BA0012"/>
			<stop  offset="1" style="stop-color:#950012"/>
		</linearGradient>
		<path id="XMLID_137_" class="st11" d="M297.5,534.8c-1.2-0.6-18.3-8.7-32-17.8c-11.1-7.4-38.8-27.3-62.3-61.7
			c-39.8-58.2-40.8-117.8-40.6-133.8c0.6-48.2,16.3-84.2,24.2-100.2c19.5-39,45.1-62.2,52.4-68.5C284,113.9,360.5,83.3,441,106.3
			c70,20,120.9,74.2,142.6,133.2c0.2,0.5,0.7,0.7,1.1,0.5l65.6-26.9c0.4-0.2,0.7-0.7,0.5-1.2c-21-45.4-50-75.4-66-90.1
			c-17.3-15.9-83.2-74.4-182-74.6c-99.2-0.2-194.5,58.3-238.1,147.4c-8,16.3-41.1,88.6-17.5,176.8c6.6,24.7,23.6,72.8,66.5,113.5
			c0,0,9.1,8.9,24.3,20c7.4,5.4,29.2,20.6,61.5,33.4c2.7,1.1,5.8,2.2,9.1,3.4c1,0.4,1.6-1.1,0.6-1.6
			C305.5,538.5,301.6,536.7,297.5,534.8z"/>
		<linearGradient id="XMLID_5_" gradientUnits="userSpaceOnUse" x1="563.756" y1="263.0206" x2="683.4388" y2="263.0206">
			<stop  offset="0" style="stop-color:#BA0012"/>
			<stop  offset="1" style="stop-color:#950012"/>
		</linearGradient>
		<path id="XMLID_136_" class="st12" d="M682.3,212.7l-118,48.4c-0.7,0.3-0.7,1.2-0.1,1.5l89.7,50.8c0.5,0.3,1.1,0,1.2-0.5
			l28.3-99.2C683.6,213,682.9,212.4,682.3,212.7z"/>
		<linearGradient id="XMLID_16_" gradientUnits="userSpaceOnUse" x1="275.0352" y1="340.7708" x2="404.6297" y2="340.7708">
			<stop  offset="0" style="stop-color:#BA0012"/>
			<stop  offset="1" style="stop-color:#950012"/>
		</linearGradient>
		<path id="XMLID_135_" class="st13" d="M364.4,319.8l39.8,25.6c0.6,0.4,0.5,1.4-0.3,1.5l-76.1,16.2c-1.7,0.4-3.5,0.3-5.2-0.2
			l-47.1-14.3c-0.8-0.2-0.8-1.3,0-1.6l79.8-28.3C358.4,317.7,361.7,318.1,364.4,319.8z"/>
		<linearGradient id="XMLID_17_" gradientUnits="userSpaceOnUse" x1="211.5187" y1="326.4894" x2="585.7319" y2="326.4894">
			<stop  offset="0" style="stop-color:#BA0012"/>
			<stop  offset="1" style="stop-color:#950012"/>
		</linearGradient>
		<path id="XMLID_134_" class="st14" d="M585.4,441.3L451.2,338.2c-0.6-0.4-0.4-1.4,0.3-1.5l90.2-19.4c0.9-0.2,0.9-1.4,0.1-1.6
			l-90-28.7c-2.1-0.7-4.5-0.6-6.6,0.1L409,299.8c-3.3,1.2-7,0.6-9.7-1.5l-75.4-58c-1.1-0.8-2.3-1.4-3.7-1.8l-107.6-28.3
			c-0.9-0.2-1.5,1-0.7,1.5l346.8,222.8c0.8,0.5,1.7,0.9,2.6,1.2l23.4,7.1C585.5,443.1,586.1,441.9,585.4,441.3z"/>
	</g>
	<g id="BLUE_copia" class="st1">
		<linearGradient id="XMLID_20_" gradientUnits="userSpaceOnUse" x1="412.118" y1="379.5391" x2="471.6079" y2="379.5391">
			<stop  offset="0" style="stop-color:#004AB5"/>
			<stop  offset="1" style="stop-color:#054593"/>
		</linearGradient>
		<path id="XMLID_133_" class="st15" d="M470.5,407.9l-37.4-11.4c-3.1-0.9-5.5-3.2-6.6-6.2l-14.2-38c-0.3-0.8,0.6-1.5,1.3-1
			l44.6,28.7c1.7,1.1,3.1,2.7,3.9,4.6l9.6,22.3C471.8,407.4,471.2,408.1,470.5,407.9z"/>
		<linearGradient id="XMLID_21_" gradientUnits="userSpaceOnUse" x1="449.3944" y1="460.0453" x2="497.7863" y2="460.0453">
			<stop  offset="0" style="stop-color:#004AB5"/>
			<stop  offset="1" style="stop-color:#054593"/>
		</linearGradient>
		<path id="XMLID_130_" class="st16" d="M490,477.6l-11.3,11.2c-0.2,0.2-0.5,0.3-0.7,0.2l-27.9-4.5c-0.5-0.1-0.8-0.5-0.7-1l8-40.8
			c0-0.2,0.1-0.3,0.3-0.5l12.1-11c0.2-0.2,0.5-0.3,0.8-0.2l26.6,6.6c0.4,0.1,0.7,0.5,0.6,1l-7.6,38.4
			C490.2,477.3,490.1,477.5,490,477.6z M476.7,474.6l5.5-5.3c0.1-0.1,0.2-0.3,0.2-0.4l3.7-19c0.1-0.5-0.2-0.9-0.6-1l-12.8-2.9
			c-0.3-0.1-0.6,0-0.8,0.2l-5.7,5.3c-0.1,0.1-0.2,0.3-0.3,0.5l-3.8,19.5c-0.1,0.5,0.2,0.9,0.7,1l13.1,2.4
			C476.2,474.8,476.5,474.8,476.7,474.6z"/>
		<linearGradient id="meter_7_" gradientUnits="userSpaceOnUse" x1="481.8446" y1="377.3271" x2="636.9073" y2="377.3271">
			<stop  offset="0" style="stop-color:#004AB5"/>
			<stop  offset="1" style="stop-color:#054593"/>
		</linearGradient>
		<path id="meter_5_" class="st17" d="M508,428.5l-25.5-6.4c-0.7-0.2-0.9-1.2-0.2-1.5l153.4-94.3c0.9-0.6,1.8,0.7,1,1.4L508.7,428.3
			C508.5,428.5,508.2,428.5,508,428.5z"/>
	</g>
	<g id="GRAY_copia" class="st1">
		<g id="TREMO_4_">
			<linearGradient id="XMLID_22_" gradientUnits="userSpaceOnUse" x1="207.7079" y1="409.5315" x2="285.2623" y2="409.5315">
				<stop  offset="0" style="stop-color:#C2C3C8"/>
				<stop  offset="1" style="stop-color:#B3B4B7"/>
			</linearGradient>
			<path id="XMLID_128_" class="st18" d="M285.1,386l-10.6,14.4c-0.2,0.3-0.5,0.4-0.9,0.3l-19.7-4.5c-0.5-0.1-0.9,0.2-1,0.7l-9.6,49
				c-0.1,0.3-0.3,0.5-0.6,0.6l-17.9,5.8c-0.6,0.2-1.2-0.3-1.1-1l11.5-58.6c0.1-0.5-0.2-0.9-0.6-1l-26.3-6c-0.4-0.1-0.7-0.5-0.6-1
				l3.5-17.6c0.1-0.5,0.6-0.8,1-0.7l72.4,18.1C285.2,384.9,285.5,385.5,285.1,386z"/>
			<linearGradient id="XMLID_24_" gradientUnits="userSpaceOnUse" x1="276.1435" y1="433.6007" x2="345.6475" y2="433.6007">
				<stop  offset="0" style="stop-color:#C2C3C8"/>
				<stop  offset="1" style="stop-color:#B3B4B7"/>
			</linearGradient>
			<path id="XMLID_126_" class="st19" d="M301.9,408l-9.9,50.2c-0.1,0.4-0.5,0.7-1,0.7l-14.2-2.3c-0.5-0.1-0.8-0.5-0.7-1l13.5-68.7
				c0.1-0.5,0.6-0.8,1-0.7l50.8,12.7c0.3,0.1,0.6,0.3,0.6,0.7l3.5,17c0.1,0.3-0.1,0.6-0.3,0.8l-20.7,16.1c-0.3,0.3-0.4,0.7-0.2,1.1
				l13.2,23.1c0.1,0.2,0.1,0.4,0.1,0.6l-4.3,22c-0.2,0.8-1.2,0.9-1.6,0.3l-29.7-50.4c-0.2-0.4-0.1-0.8,0.2-1.1l20.8-15.7
				c0.6-0.4,0.4-1.3-0.3-1.5l-19.8-4.5C302.5,407.3,302,407.6,301.9,408z"/>
			<linearGradient id="XMLID_25_" gradientUnits="userSpaceOnUse" x1="343.1552" y1="438.7964" x2="408.4575" y2="438.7964">
				<stop  offset="0" style="stop-color:#C2C3C8"/>
				<stop  offset="1" style="stop-color:#B3B4B7"/>
			</linearGradient>
			<path id="XMLID_122_" class="st20" d="M408.3,416.7l-7.9,12.2c-0.2,0.3-0.6,0.4-0.9,0.4l-46.2-10.5c-0.4-0.1-0.7-0.5-0.6-1
				l2.9-14.5c0.1-0.5,0.6-0.8,1-0.7l51.2,12.8C408.4,415.6,408.6,416.2,408.3,416.7z M403.9,439.4l-7.9,12.4
				c-0.2,0.3-0.5,0.4-0.9,0.4l-46.4-9c-0.5-0.1-0.8-0.5-0.7-1l2.9-14.5c0.1-0.5,0.5-0.8,1-0.7l51.5,11.1
				C403.9,438.2,404.2,438.9,403.9,439.4z M399.4,462l-8,12.6c-0.2,0.3-0.5,0.4-0.9,0.4l-46.7-7.5c-0.5-0.1-0.8-0.5-0.7-1l2.9-14.5
				c0.1-0.5,0.5-0.8,1-0.7l51.8,9.5C399.4,460.8,399.7,461.5,399.4,462z"/>
			<linearGradient id="XMLID_35_" gradientUnits="userSpaceOnUse" x1="399.6208" y1="448.9867" x2="455.4059" y2="448.9867">
				<stop  offset="0" style="stop-color:#C2C3C8"/>
				<stop  offset="1" style="stop-color:#B3B4B7"/>
			</linearGradient>
			<path id="XMLID_120_" class="st21" d="M455.4,426.2l-11.1,56.5c-0.1,0.4-0.5,0.7-1,0.7l-8.8-1.4c-0.5-0.1-0.8-0.5-0.7-1l4.3-21.6
				c0.2-0.8-0.8-1.3-1.4-0.8l-10.9,9.9c-0.4,0.4-1.1,0.3-1.3-0.3l-6.6-13.5c-0.4-0.7-1.4-0.6-1.6,0.2l-3.8,19.2
				c-0.1,0.3-0.2,0.5-0.5,0.6l-11.1,4.8c-0.6,0.3-1.3-0.3-1.2-0.9l12.5-63.4c0.2-0.8,1.2-0.9,1.6-0.2l15,31.4
				c0.2,0.5,0.9,0.6,1.3,0.3l23.9-21.3C454.6,424.9,455.5,425.4,455.4,426.2z"/>
			<g id="flechitas_2_">
				<linearGradient id="XMLID_40_" gradientUnits="userSpaceOnUse" x1="493.4862" y1="467.5529" x2="553.1885" y2="467.5529">
					<stop  offset="0" style="stop-color:#C2C3C8"/>
					<stop  offset="1" style="stop-color:#B3B4B7"/>
				</linearGradient>
				<path id="XMLID_119_" class="st22" d="M531.6,440.3l-25.8-5c-0.7-0.1-1.3,0.6-0.9,1.3l20,32.8c0.2,0.4,0.1,0.9-0.2,1.1l-31,22.8
					c-0.6,0.4-0.4,1.4,0.3,1.5l25.8,5c0.2,0,0.5,0,0.7-0.1l32.2-23.7c0.4-0.3,0.5-0.8,0.2-1.1l-20.9-34.1
					C532.1,440.5,531.9,440.4,531.6,440.3z"/>
				<linearGradient id="XMLID_61_" gradientUnits="userSpaceOnUse" x1="529.3173" y1="474.6363" x2="589.0196" y2="474.6363">
					<stop  offset="0" style="stop-color:#C2C3C8"/>
					<stop  offset="1" style="stop-color:#B3B4B7"/>
				</linearGradient>
				<path id="XMLID_118_" class="st23" d="M567.5,447.4l-25.8-5c-0.7-0.1-1.3,0.6-0.9,1.3l20,32.8c0.2,0.4,0.1,0.9-0.2,1.1l-31,22.8
					c-0.6,0.4-0.4,1.4,0.3,1.5l25.8,5c0.2,0,0.5,0,0.7-0.1l32.2-23.7c0.4-0.3,0.5-0.8,0.2-1.1L568,447.8
					C567.9,447.6,567.7,447.4,567.5,447.4z"/>
				<linearGradient id="XMLID_68_" gradientUnits="userSpaceOnUse" x1="565.5181" y1="481.8656" x2="625.2204" y2="481.8656">
					<stop  offset="0" style="stop-color:#C2C3C8"/>
					<stop  offset="1" style="stop-color:#B3B4B7"/>
				</linearGradient>
				<path id="XMLID_117_" class="st24" d="M603.7,454.6l-25.8-5c-0.7-0.1-1.3,0.6-0.9,1.3l20,32.8c0.2,0.4,0.1,0.9-0.2,1.1l-31,22.8
					c-0.6,0.4-0.4,1.4,0.3,1.5l25.8,5c0.2,0,0.5,0,0.7-0.1l32.2-23.7c0.4-0.3,0.5-0.8,0.2-1.1L604.2,455
					C604.1,454.8,603.9,454.7,603.7,454.6z"/>
				<linearGradient id="cacho3_8_" gradientUnits="userSpaceOnUse" x1="369.7587" y1="504.6884" x2="585.4492" y2="504.6884">
					<stop  offset="0" style="stop-color:#C2C3C8"/>
					<stop  offset="1" style="stop-color:#B3B4B7"/>
				</linearGradient>
				<path id="cacho3_1_" class="st25" d="M584.7,518l-214-38.4c-1.1-0.2-1.4,1.4-0.4,1.7l200.2,48.6c0.2,0.1,0.5,0,0.7-0.1
					l13.8-10.1C585.7,519.1,585.5,518.1,584.7,518z"/>
				<linearGradient id="cacho2_7_" gradientUnits="userSpaceOnUse" x1="441.141" y1="511.1525" x2="585.4474" y2="511.1525">
					<stop  offset="0" style="stop-color:#C2C3C8"/>
					<stop  offset="1" style="stop-color:#B3B4B7"/>
				</linearGradient>
				<path id="cacho2_3_" class="st26" d="M584.7,518l-142.6-25.5c-1.1-0.2-1.4,1.4-0.4,1.7l128.8,35.6c0.3,0.1,0.5,0,0.7-0.1
					l13.8-10.1C585.7,519.1,585.5,518.1,584.7,518z"/>
				<linearGradient id="cacho1_7_" gradientUnits="userSpaceOnUse" x1="463.2521" y1="513.1537" x2="585.4464" y2="513.1537">
					<stop  offset="0" style="stop-color:#C2C3C8"/>
					<stop  offset="1" style="stop-color:#B3B4B7"/>
				</linearGradient>
				<path id="cacho1_2_" class="st27" d="M584.7,518l-120.5-21.5c-1.1-0.2-1.4,1.3-0.4,1.7l106.7,31.6c0.3,0.1,0.5,0,0.7-0.1
					l13.8-10.1C585.7,519.1,585.5,518.1,584.7,518z"/>
			</g>
		</g>
		<g id="NIVEL_4_">
			<linearGradient id="XMLID_93_" gradientUnits="userSpaceOnUse" x1="380.4557" y1="209.4183" x2="432.4529" y2="209.4183">
				<stop  offset="0" style="stop-color:#C2C3C8"/>
				<stop  offset="1" style="stop-color:#B3B4B7"/>
			</linearGradient>
			<path id="XMLID_114_" class="st28" d="M417.9,213.4l4.3-21.9c0.1-0.5,0.6-0.8,1-0.7l8.6,2c0.4,0.1,0.7,0.5,0.6,1l-9.6,48.8
				c-0.1,0.7-1.1,0.9-1.5,0.3L398,207.3c-0.4-0.6-1.4-0.4-1.5,0.3l-4.5,22.8c-0.1,0.5-0.5,0.7-1,0.7l-9.8-1.6
				c-0.5-0.1-0.8-0.5-0.7-1l10.3-52.2c0.1-0.8,1.1-0.9,1.6-0.3l24,37.7C416.7,214.3,417.7,214.1,417.9,213.4z"/>
			<linearGradient id="XMLID_174_" gradientUnits="userSpaceOnUse" x1="428.8572" y1="216.9813" x2="447.2274" y2="216.9813">
				<stop  offset="0" style="stop-color:#C2C3C8"/>
				<stop  offset="1" style="stop-color:#B3B4B7"/>
			</linearGradient>
			<path id="XMLID_111_" class="st29" d="M438.5,194.4l8.1,1.9c0.4,0.1,0.7,0.5,0.6,1l-7.6,38.5c-0.1,0.3-0.3,0.5-0.6,0.6l-9.1,3.1
				c-0.6,0.2-1.2-0.3-1.1-1l8.6-43.5C437.5,194.6,438,194.3,438.5,194.4z"/>
			<linearGradient id="XMLID_239_" gradientUnits="userSpaceOnUse" x1="442.2521" y1="222.2973" x2="490.5214" y2="222.2973">
				<stop  offset="0" style="stop-color:#C2C3C8"/>
				<stop  offset="1" style="stop-color:#B3B4B7"/>
			</linearGradient>
			<path id="XMLID_109_" class="st30" d="M458.3,223.9l20.4-19.5c0.2-0.2,0.5-0.3,0.8-0.2l10.4,2.4c0.7,0.2,0.9,1,0.4,1.5
				l-46.6,40.6c-0.6,0.5-1.5,0-1.4-0.8l10.1-51.4c0.1-0.6,0.9-0.9,1.4-0.5l6.8,6.1c0.2,0.2,0.3,0.5,0.3,0.8l-4,20.2
				C456.7,223.9,457.7,224.4,458.3,223.9z"/>
			<linearGradient id="XMLID_240_" gradientUnits="userSpaceOnUse" x1="484.3453" y1="229.1147" x2="524.4396" y2="229.1147">
				<stop  offset="0" style="stop-color:#C2C3C8"/>
				<stop  offset="1" style="stop-color:#B3B4B7"/>
			</linearGradient>
			<path id="XMLID_102_" class="st31" d="M524.3,215.8l-4.5,6.9c-0.2,0.3-0.5,0.4-0.9,0.4l-28.1-6.1c-0.5-0.1-0.7-0.5-0.7-1l1.6-8.1
				c0.1-0.5,0.6-0.8,1-0.7l31,7.3C524.4,214.6,524.6,215.3,524.3,215.8z M521.6,229.7l-4.6,7c-0.2,0.3-0.5,0.4-0.9,0.4l-28.2-5.4
				c-0.5-0.1-0.8-0.5-0.7-1l1.6-8.1c0.1-0.5,0.5-0.8,1-0.7l31.2,6.5C521.6,228.5,521.9,229.2,521.6,229.7z M518.8,243.6l-4.6,7.1
				c-0.2,0.3-0.5,0.4-0.9,0.4l-28.3-4.6c-0.5-0.1-0.8-0.5-0.7-1l1.6-8.1c0.1-0.5,0.5-0.8,1-0.7l31.3,5.7
				C518.8,242.4,519.1,243.1,518.8,243.6z"/>
			<linearGradient id="XMLID_242_" gradientUnits="userSpaceOnUse" x1="519.6851" y1="234.7339" x2="547.0018" y2="234.7339">
				<stop  offset="0" style="stop-color:#C2C3C8"/>
				<stop  offset="1" style="stop-color:#B3B4B7"/>
			</linearGradient>
			<path id="XMLID_101_" class="st32" d="M529.4,244.3l16.9,3.1c0.6,0.1,0.9,0.8,0.6,1.3l-4.1,6.7c-0.2,0.3-0.5,0.4-0.9,0.4
				l-21.5-3.5c-0.5-0.1-0.8-0.5-0.7-1l7.2-36.8c0.1-0.7,1-0.9,1.4-0.4l4.8,4.8c0.2,0.2,0.3,0.5,0.2,0.8l-4.7,23.7
				C528.7,243.8,529,244.2,529.4,244.3z"/>
		</g>
	</g>
</g>
</svg>
